{
    "asset" : {
        "generator" : "Khronos glTF Blender I/O v1.2.75",
        "version" : "2.0"
    },
    "scene" : 0,
    "scenes" : [
        {
            "extras" : {
                "NWBusyDrawing" : "",
                "NWLazySource" : "Emission",
                "NWLazyTarget" : "Principled BSDF",
                "ats_settings" : {
                    "num_tiles" : [
                        8,
                        5
                    ],
                    "threads_error" : 0,
                    "prev_engine" : "CYCLES",
                    "prev_device" : "GPU",
                    "prev_border" : 0,
                    "prev_threads" : 1,
                    "prev_choice" : "256",
                    "prev_res" : [
                        1920,
                        1080
                    ],
                    "prev_border_res" : [
                        0,
                        0,
                        1,
                        1
                    ],
                    "prev_actual_tile_size" : [
                        240,
                        216
                    ],
                    "first_run" : 0
                },
                "luxcore" : {
                    "opencl" : {
                        "devices_hash" : "GeForce GTX 1660",
                        "devices" : [
                            {
                                "name" : "GeForce GTX 1660",
                                "type" : "OPENCL_GPU"
                            }
                        ]
                    },
                    "config" : {
                        "film_opencl_enable" : 1,
                        "film_opencl_device" : 1,
                        "filesaver_path" : "/tmp/",
                        "photongi" : {
                            "file_path" : "//4_final model_destructive.pgi"
                        }
                    }
                }
            },
            "name" : "Scene",
            "nodes" : [
                0
            ]
        }
    ],
    "nodes" : [
        {
            "mesh" : 0,
            "name" : "Eyelet rings",
            "rotation" : [
                0.09974285960197449,
                0.11546759307384491,
                -0.5792431235313416,
                0.8007471561431885
            ],
            "scale" : [
                0.02904639020562172,
                0.029046397656202316,
                0.02904638834297657
            ],
            "translation" : [
                0.22322916984558105,
                0.3477984666824341,
                0.6042718291282654
            ]
        }
    ],
    "materials" : [
        {
            "doubleSided" : true,
            "emissiveFactor" : [
                0,
                0,
                0
            ],
            "extras" : {
                "luxcore" : {}
            },
            "name" : "Metal",
            "pbrMetallicRoughness" : {
                "baseColorFactor" : [
                    0.800000011920929,
                    0.800000011920929,
                    0.800000011920929,
                    1
                ],
                "metallicFactor" : 1,
                "roughnessFactor" : 0.30340901017189026
            }
        }
    ],
    "meshes" : [
        {
            "name" : "Torus",
            "primitives" : [
                {
                    "attributes" : {
                        "POSITION" : 0,
                        "NORMAL" : 1,
                        "TANGENT" : 2,
                        "TEXCOORD_0" : 3
                    },
                    "indices" : 4,
                    "material" : 0
                }
            ]
        }
    ],
    "accessors" : [
        {
            "bufferView" : 0,
            "componentType" : 5126,
            "count" : 29100,
            "max" : [
                12.388097763061523,
                5.196977615356445,
                1.2353025674819946
            ],
            "min" : [
                -7.36590576171875,
                -22.84605598449707,
                -39.19276428222656
            ],
            "type" : "VEC3"
        },
        {
            "bufferView" : 1,
            "componentType" : 5126,
            "count" : 29100,
            "type" : "VEC3"
        },
        {
            "bufferView" : 2,
            "componentType" : 5126,
            "count" : 29100,
            "type" : "VEC4"
        },
        {
            "bufferView" : 3,
            "componentType" : 5126,
            "count" : 29100,
            "type" : "VEC2"
        },
        {
            "bufferView" : 4,
            "componentType" : 5123,
            "count" : 165888,
            "type" : "SCALAR"
        }
    ],
    "bufferViews" : [
        {
            "buffer" : 0,
            "byteLength" : 349200,
            "byteOffset" : 0
        },
        {
            "buffer" : 0,
            "byteLength" : 349200,
            "byteOffset" : 349200
        },
        {
            "buffer" : 0,
            "byteLength" : 465600,
            "byteOffset" : 698400
        },
        {
            "buffer" : 0,
            "byteLength" : 232800,
            "byteOffset" : 1164000
        },
        {
            "buffer" : 0,
            "byteLength" : 331776,
            "byteOffset" : 1396800
        }
    ],
    "buffers" : [
        {
            "byteLength" : 1728576,
            "uri" : "ring.bin"
        }
    ]
}
